<mxfile host="app.diagrams.net" modified="2023-07-06T19:15:51.431Z" agent="Mozilla/5.0 (Macintosh; Intel Mac OS X 10_15_7) AppleWebKit/537.36 (KHTML, like Gecko) Chrome/114.0.0.0 Safari/537.36" etag="YLUd0x-uRvn_509ctWKE" version="21.6.1" type="github">
  <diagram id="C5RBs43oDa-KdzZeNtuy" name="Page-1">
    <mxGraphModel dx="1306" dy="787" grid="1" gridSize="10" guides="1" tooltips="1" connect="1" arrows="1" fold="1" page="1" pageScale="1" pageWidth="827" pageHeight="1169" math="0" shadow="0">
      <root>
        <mxCell id="WIyWlLk6GJQsqaUBKTNV-0" />
        <mxCell id="WIyWlLk6GJQsqaUBKTNV-1" parent="WIyWlLk6GJQsqaUBKTNV-0" />
        <mxCell id="IA_pvSoH-PXnYGf1QYgV-1" value="" style="edgeStyle=orthogonalEdgeStyle;rounded=0;orthogonalLoop=1;jettySize=auto;html=1;" edge="1" parent="WIyWlLk6GJQsqaUBKTNV-1" source="WIyWlLk6GJQsqaUBKTNV-11" target="IA_pvSoH-PXnYGf1QYgV-0">
          <mxGeometry relative="1" as="geometry" />
        </mxCell>
        <mxCell id="WIyWlLk6GJQsqaUBKTNV-11" value="Start" style="rounded=1;whiteSpace=wrap;html=1;fontSize=12;glass=0;strokeWidth=1;shadow=0;" parent="WIyWlLk6GJQsqaUBKTNV-1" vertex="1">
          <mxGeometry x="10" y="380" width="120" height="40" as="geometry" />
        </mxCell>
        <mxCell id="IA_pvSoH-PXnYGf1QYgV-3" value="" style="edgeStyle=orthogonalEdgeStyle;rounded=0;orthogonalLoop=1;jettySize=auto;html=1;" edge="1" parent="WIyWlLk6GJQsqaUBKTNV-1" source="IA_pvSoH-PXnYGf1QYgV-0" target="IA_pvSoH-PXnYGf1QYgV-2">
          <mxGeometry relative="1" as="geometry" />
        </mxCell>
        <mxCell id="IA_pvSoH-PXnYGf1QYgV-0" value="Ticket created" style="rounded=0;whiteSpace=wrap;html=1;" vertex="1" parent="WIyWlLk6GJQsqaUBKTNV-1">
          <mxGeometry x="170" y="380" width="120" height="40" as="geometry" />
        </mxCell>
        <mxCell id="IA_pvSoH-PXnYGf1QYgV-7" value="" style="edgeStyle=orthogonalEdgeStyle;rounded=0;orthogonalLoop=1;jettySize=auto;html=1;" edge="1" parent="WIyWlLk6GJQsqaUBKTNV-1" source="IA_pvSoH-PXnYGf1QYgV-2" target="IA_pvSoH-PXnYGf1QYgV-6">
          <mxGeometry relative="1" as="geometry" />
        </mxCell>
        <mxCell id="IA_pvSoH-PXnYGf1QYgV-2" value="Is Product &lt;br&gt;Only?" style="rhombus;whiteSpace=wrap;html=1;rounded=0;" vertex="1" parent="WIyWlLk6GJQsqaUBKTNV-1">
          <mxGeometry x="364" y="350" width="100" height="100" as="geometry" />
        </mxCell>
        <mxCell id="IA_pvSoH-PXnYGf1QYgV-9" value="" style="edgeStyle=orthogonalEdgeStyle;rounded=0;orthogonalLoop=1;jettySize=auto;html=1;" edge="1" parent="WIyWlLk6GJQsqaUBKTNV-1" source="IA_pvSoH-PXnYGf1QYgV-6" target="IA_pvSoH-PXnYGf1QYgV-8">
          <mxGeometry relative="1" as="geometry" />
        </mxCell>
        <mxCell id="IA_pvSoH-PXnYGf1QYgV-6" value="Is Service Offered?" style="rhombus;whiteSpace=wrap;html=1;rounded=0;" vertex="1" parent="WIyWlLk6GJQsqaUBKTNV-1">
          <mxGeometry x="364" y="190" width="100" height="100" as="geometry" />
        </mxCell>
        <mxCell id="IA_pvSoH-PXnYGf1QYgV-11" value="" style="edgeStyle=orthogonalEdgeStyle;rounded=0;orthogonalLoop=1;jettySize=auto;html=1;" edge="1" parent="WIyWlLk6GJQsqaUBKTNV-1" source="IA_pvSoH-PXnYGf1QYgV-8" target="IA_pvSoH-PXnYGf1QYgV-10">
          <mxGeometry relative="1" as="geometry" />
        </mxCell>
        <mxCell id="IA_pvSoH-PXnYGf1QYgV-8" value="Bechmark?" style="rhombus;whiteSpace=wrap;html=1;rounded=0;" vertex="1" parent="WIyWlLk6GJQsqaUBKTNV-1">
          <mxGeometry x="374" y="20" width="80" height="80" as="geometry" />
        </mxCell>
        <mxCell id="IA_pvSoH-PXnYGf1QYgV-10" value="Auto Email + Private Note - OOS &amp;amp; Closed Ticket" style="whiteSpace=wrap;html=1;rounded=0;" vertex="1" parent="WIyWlLk6GJQsqaUBKTNV-1">
          <mxGeometry x="180" y="30" width="120" height="60" as="geometry" />
        </mxCell>
      </root>
    </mxGraphModel>
  </diagram>
</mxfile>
